<svg id="Capa_1" enable-background="new 0 0 512 512" height="512" viewBox="0 0 512 512" width="512" xmlns="http://www.w3.org/2000/svg"><g><path d="m467 0h-422c-24.813 0-45 20.187-45 45v322c0 24.813 20.187 45 45 45h135.099c-2.81 23.533-12.164 46.07-27.047 64.673l-4.261 5.327h-32.791c-8.284 0-15 6.716-15 15s6.716 15 15 15h280c8.284 0 15-6.716 15-15s-6.716-15-15-15h-32.791l-4.262-5.327c-14.883-18.603-24.237-41.14-27.047-64.673h135.1c24.813 0 45-20.187 45-45v-322c0-24.813-20.187-45-45-45zm-422 30h422c8.271 0 15 6.729 15 15v265h-452v-265c0-8.271 6.729-15 15-15zm280.909 452h-139.818c13.459-21.043 21.785-45.128 24.186-70h91.447c2.401 24.872 10.726 48.957 24.185 70zm141.091-100h-422c-8.271 0-15-6.729-15-15v-27h452v27c0 8.271-6.729 15-15 15z"/><path d="m76 195h80c8.284 0 15-6.716 15-15v-80c0-8.284-6.716-15-15-15h-80c-8.284 0-15 6.716-15 15v80c0 8.284 6.716 15 15 15zm15-80h50v50h-50z"/><path d="m216 195h80c8.284 0 15-6.716 15-15v-80c0-8.284-6.716-15-15-15h-80c-8.284 0-15 6.716-15 15v80c0 8.284 6.716 15 15 15zm15-80h50v50h-50z"/><path d="m356 195h80c8.284 0 15-6.716 15-15v-80c0-8.284-6.716-15-15-15h-80c-8.284 0-15 6.716-15 15v80c0 8.284 6.716 15 15 15zm15-80h50v50h-50z"/><path d="m216 255h80c8.284 0 15-6.716 15-15s-6.716-15-15-15h-80c-8.284 0-15 6.716-15 15s6.716 15 15 15z"/><path d="m356 255h80c8.284 0 15-6.716 15-15s-6.716-15-15-15h-80c-8.284 0-15 6.716-15 15s6.716 15 15 15z"/><path d="m76 255h80c8.284 0 15-6.716 15-15s-6.716-15-15-15h-80c-8.284 0-15 6.716-15 15s6.716 15 15 15z"/></g></svg>