<?xml version="1.0" encoding="iso-8859-1"?>
<!-- Generator: Adobe Illustrator 18.1.1, SVG Export Plug-In . SVG Version: 6.00 Build 0)  -->
<svg version="1.1" id="Capa_1" xmlns="http://www.w3.org/2000/svg" xmlns:xlink="http://www.w3.org/1999/xlink" x="0px" y="0px"
	 viewBox="0 0 290 290" style="enable-background:new 0 0 290 290;" xml:space="preserve">
<g>
	<path id="rect33426" d="M25,0C11.236,0,0,11.236,0,25v240c0,13.764,11.236,25,25,25h240c13.764,0,25-11.236,25-25V25
		c0-13.764-11.236-25-25-25H25z M25,10h240c8.396,0,15,6.604,15,15v240c0,8.396-6.604,15-15,15H25c-8.396,0-15-6.604-15-15V25
		C10,16.604,16.604,10,25,10z M35,20c-8.224,0-15,6.776-15,15v50c0,8.224,6.776,15,15,15h220c8.224,0,15-6.776,15-15V35
		c0-8.224-6.776-15-15-15H35z M35,30h220c2.856,0,5,2.144,5,5v50c0,2.856-2.144,5-5,5H35c-2.856,0-5-2.144-5-5V35
		C30,32.144,32.144,30,35,30z M40,37.5c-1.381,0-2.5,1.119-2.5,2.5v30c-0.02,1.381,1.084,2.516,2.465,2.535
		c1.381,0.02,2.516-1.084,2.535-2.465c0-0.024,0-0.047,0-0.071V42.5H65c1.381,0.02,2.516-1.084,2.535-2.465
		c0.02-1.381-1.084-2.516-2.465-2.535c-0.024,0-0.047,0-0.071,0H40z M95,55c-2.761-0.039-5.032,2.168-5.071,4.929
		c-0.039,2.761,2.168,5.032,4.929,5.071c0.047,0.001,0.094,0.001,0.141,0h100c2.761,0.039,5.032-2.168,5.071-4.929
		c0.039-2.761-2.168-5.032-4.929-5.071c-0.047-0.001-0.094-0.001-0.141,0H95z M35,105c-8.224,0-15,6.776-15,15v50
		c0,8.224,6.776,15,15,15h220c8.224,0,15-6.776,15-15v-50c0-8.224-6.776-15-15-15H35z M35,115h220c2.856,0,5,2.144,5,5v50
		c0,2.856-2.144,5-5,5H35c-2.856,0-5-2.144-5-5v-50C30,117.144,32.144,115,35,115z M40,122.5c-1.381,0-2.5,1.119-2.5,2.5v30
		c-0.02,1.381,1.084,2.516,2.465,2.535s2.516-1.084,2.535-2.465c0-0.024,0-0.047,0-0.071v-27.5H65
		c1.381,0.02,2.516-1.084,2.535-2.465c0.02-1.381-1.084-2.516-2.465-2.535c-0.024,0-0.047,0-0.071,0H40z M95,140
		c-2.761-0.039-5.032,2.168-5.071,4.929c-0.039,2.761,2.168,5.032,4.929,5.071c0.047,0.001,0.094,0.001,0.141,0h100
		c2.761,0.039,5.032-2.168,5.071-4.929c0.039-2.761-2.168-5.032-4.929-5.071c-0.047-0.001-0.094-0.001-0.141,0H95z M35,190
		c-8.224,0-15,6.776-15,15v50c0,8.224,6.776,15,15,15h220c8.224,0,15-6.776,15-15v-50c0-8.224-6.776-15-15-15H35z M35,200h220
		c2.856,0,5,2.144,5,5v50c0,2.856-2.144,5-5,5H35c-2.856,0-5-2.144-5-5v-50C30,202.144,32.144,200,35,200z M40,207.5
		c-1.381,0-2.5,1.119-2.5,2.5v30c-0.02,1.381,1.084,2.516,2.465,2.535s2.516-1.084,2.535-2.465c0-0.024,0-0.047,0-0.071v-27.5H65
		c1.381,0.02,2.516-1.084,2.535-2.465c0.02-1.381-1.084-2.516-2.465-2.535c-0.024,0-0.047,0-0.071,0H40z M95,225
		c-2.761-0.039-5.032,2.168-5.071,4.929c-0.039,2.761,2.168,5.032,4.929,5.071c0.047,0.001,0.094,0.001,0.141,0h100
		c2.761,0.039,5.032-2.168,5.071-4.929c0.039-2.761-2.168-5.032-4.929-5.071c-0.047-0.001-0.094-0.001-0.141,0H95z" fill="#4282d8" />
</g>
<g>
</g>
<g>
</g>
<g>
</g>
<g>
</g>
<g>
</g>
<g>
</g>
<g>
</g>
<g>
</g>
<g>
</g>
<g>
</g>
<g>
</g>
<g>
</g>
<g>
</g>
<g>
</g>
<g>
</g>
</svg>
