<svg height="512pt" viewBox="0 0 512 511" width="512pt" xmlns="http://www.w3.org/2000/svg">
<path d="m503.664062 273.0625-112.664062-55.867188v-141.695312c0-.089844-.007812-.179688-.007812-.269531-.109376-5.542969-3.214844-10.554688-8.175782-13.085938-.035156-.019531-.070312-.042969-.109375-.0625l-120-60c-4.222656-2.1093748-9.191406-2.1093748-13.414062 0-26.027344 13.015625-119.210938 59.601563-120.109375 60.0625-5.125 2.617188-8.183594 7.855469-8.183594 13.355469v141.695312l-112.664062 55.867188c-4.964844 2.449219-8.335938 7.640625-8.335938 13.4375v151c0 5.699219 3.230469 10.90625 8.335938 13.4375l121 60c.078124.039062.164062.066406.242187.105469 4.265625 2.023437 9.128906 1.878906 13.128906-.125l113.292969-56.648438 113.292969 56.648438c4.007812 2.007812 8.886719 2.140625 13.128906.125.078125-.039063.164063-.066407.242187-.105469l121-60c5.105469-2.53125 8.335938-7.738281 8.335938-13.4375v-151c0-5.5625-3.132812-10.839844-8.335938-13.4375zm-367.691406 56.679688-87.207031-43.242188 87.207031-43.242188 86.488282 43.242188zm135.027344-184.972657 90-45v117.460938l-90 45zm-30 117.460938-90-45v-117.460938l90 45zm30 48.539062 90 45v117.460938l-90-45zm105.027344 18.972657-86.488282-43.242188 86.488282-43.242188 87.207031 43.242188zm-120.027344-297.472657 86.460938 43.230469-86.460938 43.230469-86.460938-43.230469zm-226 278.410157 91 45.125v117.515624l-91-45.125zm211 117.550781-90 45v-117.460938l90-45zm241-.035157-91 45.125v-117.515624l91-45.125zm0 0" fill="#4282d8" /></svg>