<?xml version="1.0" encoding="iso-8859-1"?>
<!-- Generator: Adobe Illustrator 19.0.0, SVG Export Plug-In . SVG Version: 6.00 Build 0)  -->
<svg version="1.1" id="Capa_1" xmlns="http://www.w3.org/2000/svg" xmlns:xlink="http://www.w3.org/1999/xlink" x="0px" y="0px"
	 viewBox="0 0 480.009 480.009" style="enable-background:new 0 0 480.009 480.009;" xml:space="preserve">
<g>
	<g>
		<path d="M456.005,352h-20.448c2.881-4.842,4.417-10.366,4.448-16c0-4.418-3.582-8-8-8h-16v-80c0-4.418-3.582-8-8-8h-144
			c-4.418,0-8,3.582-8,8v80h-16c-4.418,0-8,3.582-8,8c0.031,5.634,1.567,11.158,4.448,16h-62.744
			c-6.781-9.441-15.219-17.573-24.904-24h19.2c4.418,0,8-3.582,8-8v-51.056c11.585-12.987,10.448-32.907-2.54-44.492
			c-0.495-0.441-1.003-0.867-1.524-1.276c-9.911-30.015-36.499-51.43-67.936-54.72v-17.928
			c12.497-4.418,19.046-18.131,14.627-30.627s-18.131-19.046-30.627-14.627c-12.497,4.418-19.046,18.131-14.627,30.627
			c2.416,6.835,7.793,12.211,14.627,14.627v17.928c-31.443,3.294-58.032,24.72-67.936,54.744
			c-13.687,10.75-16.067,30.56-5.317,44.246c0.402,0.512,0.82,1.011,1.253,1.498V320c0,4.418,3.582,8,8,8h19.048
			C16.195,345.76,0.03,375.802,0.005,408v40c0,4.418,3.582,8,8,8h3.488c8.709,20.163,32.114,29.448,52.277,20.739
			c9.303-4.018,16.721-11.436,20.739-20.739h22.984c8.709,20.163,32.114,29.448,52.277,20.739
			c9.303-4.018,16.721-11.436,20.739-20.739h3.496c4.418,0,8-3.582,8-8v-40c0-2.648-0.144-5.304-0.384-8h264.384
			c13.255,0,24-10.745,24-24S469.259,352,456.005,352z M272.005,256h128v72h-8v-56c0-4.418-3.582-8-8-8h-96c-4.418,0-8,3.582-8,8v56
			h-8V256z M376.005,280v48h-80v-48H376.005z M421.853,344c-2.857,4.948-8.135,7.997-13.848,8h-144
			c-5.713-0.003-10.991-3.052-13.848-8H421.853z M168.005,248c0,8.837-7.163,16-16,16s-16-7.163-16-16s7.163-16,16-16
			S168.005,239.163,168.005,248z M96.005,120c4.418,0,8,3.582,8,8s-3.582,8-8,8s-8-3.582-8-8S91.586,120,96.005,120z M24.005,248
			c0-8.837,7.163-16,16-16s16,7.163,16,16s-7.163,16-16,16S24.005,256.837,24.005,248z M32.005,312v-33.136
			c2.607,0.719,5.296,1.101,8,1.136c17.662-0.634,31.465-15.466,30.831-33.128c-0.591-16.464-13.587-29.789-30.031-30.792
			c17.345-30.473,56.109-41.115,86.582-23.77c9.915,5.644,18.126,13.855,23.77,23.77c-17.64,1.086-31.059,16.266-29.973,33.906
			c1.013,16.449,14.352,29.438,30.821,30.014c2.704-0.035,5.393-0.417,8-1.136V312h-32v-24c0-4.418-3.582-8-8-8h-48
			c-4.418,0-8,3.582-8,8v24H32.005z M112.005,296v16h-32v-16H112.005z M48.005,464c-6.798-0.005-13.27-2.917-17.784-8h35.56
			C61.269,461.081,54.8,463.992,48.005,464z M144.005,464c-6.798-0.005-13.27-2.917-17.784-8h35.56
			C157.269,461.081,150.8,463.992,144.005,464z M176.005,440h-160v-32c0.029-44.183,35.87-79.977,80.052-79.948
			c21.451,0.014,41.998,8.642,57.028,23.948h-1.08c-13.255,0-24,10.745-24,24s10.745,24,24,24h23.56c0.292,2.657,0.439,5.327,0.44,8
			V440z M456.005,384h-304c-4.418,0-8-3.582-8-8s3.582-8,8-8h304c4.418,0,8,3.582,8,8S460.423,384,456.005,384z" fill="#4282d8" />
	</g>
</g>
<g>
	<g>
		<path d="M456.005,0h-184c-13.255,0-24,10.745-24,24v24h-40c-13.255,0-24,10.745-24,24s10.745,24,24,24h40v16h-88
			c-13.255,0-24,10.745-24,24s10.745,24,24,24h88c0,13.255,10.745,24,24,24h11.056l13.792,27.576c1.233,2.47,3.652,4.13,6.4,4.392
			c0.24,0,0.488,0,0.72,0c2.518,0,4.889-1.186,6.4-3.2L332.005,184h124c13.255,0,24-10.745,24-24V24
			C480.005,10.745,469.259,0,456.005,0z M464.005,160c0,4.418-3.582,8-8,8h-128c-2.518,0-4.889,1.186-6.4,3.2l-16.232,21.648
			l-10.208-20.424c-1.355-2.712-4.128-4.425-7.16-4.424h-16c-4.418,0-8-3.582-8-8v-8c0-4.418-3.582-8-8-8h-96c-4.418,0-8-3.582-8-8
			s3.582-8,8-8h96c4.418,0,8-3.582,8-8V88c0-4.418-3.582-8-8-8h-48c-4.418,0-8-3.582-8-8s3.582-8,8-8h48c4.418,0,8-3.582,8-8V24
			c0-4.418,3.582-8,8-8h184c4.418,0,8,3.582,8,8V160z" fill="#4282d8" />
	</g>
</g>
<g>
	<g>
		<rect x="280.005" y="32" width="168" height="16" fill="#4282d8" />
	</g>
</g>
<g>
	<g>
		<rect x="280.005" y="64" width="168" height="16" fill="#4282d8" />
	</g>
</g>
<g>
	<g>
		<rect x="280.005" y="96" width="40" height="16" fill="#4282d8" />
	</g>
</g>
<g>
	<g>
		<rect x="336.005" y="96" width="32" height="16" fill="#4282d8" />
	</g>
</g>
<g>
	<g>
		<path d="M167.301,10.952c-5.257,1.281-10.405,2.968-15.4,5.048l6.168,14.768c4.223-1.767,8.577-3.201,13.024-4.288L167.301,10.952
			z" fill="#4282d8" />
	</g>
</g>
<g>
	<g>
		<path d="M96.005,71.928c-2.087,4.995-3.777,10.147-5.056,15.408l15.544,3.776c1.085-4.443,2.513-8.794,4.272-13.016L96.005,71.928
			z" fill="#4282d8" />
	</g>
</g>
<g>
	<g>
		<path d="M112.949,44.424c-3.515,4.109-6.706,8.485-9.544,13.088l13.6,8.392c2.412-3.897,5.121-7.601,8.104-11.08L112.949,44.424z"
			fill="#4282d8" />
	</g>
</g>
<g>
	<g>
		<path d="M137.493,23.44c-4.603,2.829-8.979,6.012-13.088,9.52l10.4,12.16c3.476-2.979,7.181-5.681,11.08-8.08L137.493,23.44z" fill="#4282d8" />
	</g>
</g>
</svg>
