<?xml version="1.0" encoding="iso-8859-1"?>
<!-- Generator: Adobe Illustrator 19.1.0, SVG Export Plug-In . SVG Version: 6.00 Build 0)  -->
<svg xmlns="http://www.w3.org/2000/svg" xmlns:xlink="http://www.w3.org/1999/xlink" version="1.1" id="Capa_1" x="0px" y="0px" viewBox="0 0 486.9 486.9" style="enable-background:new 0 0 486.9 486.9;" xml:space="preserve" width="512px" height="512px">
<g>
	<g>
		<path d="M374.288,93.2c25.6,0,46.4-20.9,46.4-46.6S399.888,0,374.288,0s-46.4,21-46.4,46.6S348.688,93.2,374.288,93.2z     M374.288,24.1c12.3,0,22.4,10.1,22.4,22.6s-10,22.6-22.4,22.6s-22.4-10.2-22.4-22.7S361.888,24.1,374.288,24.1z" fill="#4282d8"/>
		<path d="M100.688,393.7c-25.6,0-46.4,20.9-46.4,46.6s20.8,46.6,46.4,46.6s46.4-20.9,46.4-46.6S126.188,393.7,100.688,393.7z     M100.688,462.9c-12.3,0-22.4-10.1-22.4-22.6c0-12.4,10-22.6,22.4-22.6s22.4,10.1,22.4,22.6    C122.988,452.7,112.988,462.9,100.688,462.9z" fill="#4282d8"/>
		<path d="M215.388,206.5c2.3,2.3,5.4,3.5,8.5,3.5s6.1-1.2,8.5-3.5c4.7-4.7,4.7-12.3,0-17l-25-25l25-25c4.7-4.7,4.7-12.3,0-17    c-4.7-4.7-12.3-4.7-17,0l-25,25l-25-25c-4.7-4.7-12.3-4.7-17,0c-4.7,4.7-4.7,12.3,0,17l25,25l-25,25c-4.7,4.7-4.7,12.3,0,17    c2.3,2.3,5.4,3.5,8.5,3.5s6.1-1.2,8.5-3.5l25-25L215.388,206.5z" fill="#4282d8"/>
		<path d="M416.288,315c-4.7-4.7-12.3-4.7-17,0l-25,25l-25-25c-4.7-4.7-12.3-4.7-17,0s-4.7,12.3,0,17l25,25l-25,25    c-4.7,4.7-4.7,12.3,0,17c2.3,2.3,5.4,3.5,8.5,3.5s6.1-1.2,8.5-3.5l25-25l25,25c2.3,2.3,5.4,3.5,8.5,3.5s6.1-1.2,8.5-3.5    c4.7-4.7,4.7-12.3,0-17l-25-25l25-25C420.988,327.2,420.988,319.7,416.288,315z" fill="#4282d8"/>
		<path d="M274.088,376.9c-4.7-4.7-12.3-4.7-17,0l-25,25l-25-25c-4.7-4.7-12.3-4.7-17,0c-4.7,4.7-4.7,12.3,0,17l25,25l-25,25    c-4.7,4.7-4.7,12.3,0,17c2.3,2.3,5.4,3.5,8.5,3.5s6.1-1.2,8.5-3.5l25-25l25,25c2.3,2.3,5.4,3.5,8.5,3.5s6.1-1.2,8.5-3.5    c4.7-4.7,4.7-12.3,0-17l-25-25l25-25C278.688,389.2,278.688,381.6,274.088,376.9z" fill="#4282d8"/>
		<path d="M196.388,286.7c6.6,0,12-5.4,12-12c0-6.6-5.4-12-12-12s-12,5.4-12,12C184.388,281.3,189.688,286.7,196.388,286.7z" fill="#4282d8"/>
		<path d="M107.488,322.1c2,1.3,4.3,2,6.6,2c3.9,0,7.7-1.9,10-5.4c3.6-5.5,2.1-13-3.4-16.6c-5.5-3.6-13-2.1-16.6,3.4    C100.388,311,101.888,318.5,107.488,322.1z" fill="#4282d8"/>
		<path d="M144.988,270.8c-6.1,2.7-8.8,9.8-6.1,15.8c2,4.5,6.4,7.1,11,7.1c1.6,0,3.3-0.3,4.9-1c6.1-2.7,8.8-9.8,6.1-15.8    C158.087,270.8,150.988,268.1,144.988,270.8z" fill="#4282d8"/>
		<circle cx="243.888" cy="274.7" r="12" fill="#ffffff"/>
		<path d="M100.688,369c3.2,0,6.3-1.3,8.5-3.5s3.5-5.3,3.5-8.5s-1.3-6.3-3.5-8.5s-5.3-3.5-8.5-3.5s-6.3,1.3-8.5,3.5    s-3.5,5.3-3.5,8.5s1.3,6.3,3.5,8.5S97.488,369,100.688,369z" fill="#4282d8"/>
		<path d="M429.088,170.2l-46.4-46.4c-4.7-4.7-12.3-4.7-17,0l-46.4,46.4c-4.7,4.7-4.7,12.3,0,17s12.3,4.7,17,0l25.9-25.9v31    c0,38.8-31.8,70.3-70.9,70.3c-6.6,0-12,5.4-12,12c0,6.6,5.4,12,12,12c52.3,0,94.9-42.3,94.9-94.3v-31.1l25.9,25.9    c2.3,2.3,5.4,3.5,8.5,3.5s6.1-1.2,8.5-3.5C433.788,182.5,433.788,174.9,429.088,170.2z" fill="#4282d8"/>
	</g>
</g>
<g>
</g>
<g>
</g>
<g>
</g>
<g>
</g>
<g>
</g>
<g>
</g>
<g>
</g>
<g>
</g>
<g>
</g>
<g>
</g>
<g>
</g>
<g>
</g>
<g>
</g>
<g>
</g>
<g>
</g>
</svg>
