<?xml version="1.0" encoding="iso-8859-1"?>
<!-- Generator: Adobe Illustrator 19.0.0, SVG Export Plug-In . SVG Version: 6.00 Build 0)  -->
<svg version="1.1" id="Layer_1" xmlns="http://www.w3.org/2000/svg" xmlns:xlink="http://www.w3.org/1999/xlink" x="0px" y="0px"
	 viewBox="0 0 512 512" style="enable-background:new 0 0 512 512;" xml:space="preserve">
<g>
	<g>
		<path d="M485.053,153.997V89.886c0-14.895-12.114-27.009-27.009-27.009H27.009C12.114,62.877,0,74.996,0,89.89v224.496v35.947
			c0,14.851,12.092,26.93,26.956,26.93h161.675v44.912h-44.912v17.965h53.895h89.825h44.912v-17.965h-35.93v-44.912h53.895v35.925
			c0,19.816,16.154,35.934,36.013,35.934h89.658c19.86,0,36.013-16.118,36.013-35.934V188.636
			C512,171.963,500.51,158.035,485.053,153.997z M278.456,422.175h-71.86v-44.912h71.86V422.175z M350.316,359.298h-62.877h-89.825
			H26.956c-4.956,0-8.991-4.022-8.991-8.965v-26.965h332.351V359.298z M350.316,188.636v116.767H17.965V89.89
			c0-4.991,4.057-9.048,9.044-9.048h431.035c4.987,0,9.044,4.057,9.044,9.044v62.816h-80.759
			C366.469,152.702,350.316,168.82,350.316,188.636z M494.035,413.188c0,9.908-8.097,17.969-18.048,17.969h-89.658
			c-9.952,0-18.048-8.061-18.048-17.969v-44.908v-53.895v-125.75c0-9.908,8.097-17.969,18.048-17.969h89.658
			c9.952,0,18.048,8.061,18.048,17.969V413.188z" fill="#4282d8"/>
	</g>
</g>
<g>
	<g>
		<circle cx="431.158" cy="404.211" r="17.965" fill="#4282d8"/>
	</g>
</g>
<g>
	<g>
		<rect x="413.193" y="188.632" width="35.93" height="17.965" fill="#4282d8"/>
	</g>
</g>
<g>
</g>
<g>
</g>
<g>
</g>
<g>
</g>
<g>
</g>
<g>
</g>
<g>
</g>
<g>
</g>
<g>
</g>
<g>
</g>
<g>
</g>
<g>
</g>
<g>
</g>
<g>
</g>
<g>
</g>
</svg>
