<?xml version="1.0" encoding="iso-8859-1"?>
<!-- Generator: Adobe Illustrator 19.0.0, SVG Export Plug-In . SVG Version: 6.00 Build 0)  -->
<svg version="1.1" id="Capa_1" xmlns="http://www.w3.org/2000/svg" xmlns:xlink="http://www.w3.org/1999/xlink" x="0px" y="0px"
	 viewBox="0 0 480 480" style="enable-background:new 0 0 480 480;" xml:space="preserve">
<g>
	<g>
		<path d="M456,208c4.418,0,8-3.582,8-8V40c0-4.418-3.582-8-8-8H288V8c0-4.418-3.582-8-8-8H24c-4.418,0-8,3.582-8,8v464
			c0,4.418,3.582,8,8,8h256c4.418,0,8-3.582,8-8v-24h168c4.418,0,8-3.582,8-8V280c0-4.418-3.582-8-8-8H288v-64H456z M32,16h240v16
			h-24c-4.418,0-8,3.582-8,8v24H32V16z M32,80h208v120c0,4.418,3.582,8,8,8h24v64h-24c-4.418,0-8,3.582-8,8v120H32V80z M272,464H32
			v-48h208v24c0,4.418,3.582,8,8,8h24V464z M448,288v144H256V288H448z M256,192V48h192v144H256z" fill="#4282d8" />
	</g>
</g>
<g>
	<g>
		<rect x="160" y="32" width="16" height="16" fill="#4282d8" />
	</g>
</g>
<g>
	<g>
		<rect x="128" y="32" width="16" height="16" fill="#4282d8" />
	</g>
</g>
<g>
	<g>
		<path d="M211.872,127.992C198.515,107.993,176.05,95.989,152,96c-39.742-0.018-71.974,32.185-71.992,71.928
			C79.997,191.977,92.001,214.443,112,227.8V336c-0.001,1.817,0.617,3.581,1.752,5l32,40c2.759,3.451,7.794,4.011,11.244,1.252
			c0.462-0.37,0.882-0.789,1.252-1.252l32-40c1.135-1.419,1.753-3.183,1.752-5V227.8
			C225.049,205.726,233.946,161.041,211.872,127.992z M152,363.2L136.64,344h30.72L152,363.2z M128,328v-40h16v40H128z M176,328h-16
			v-40h16V328z M176,272h-48v-16h48V272z M200.497,195.951c-4.915,8.513-11.984,15.582-20.497,20.497v0.008
			c-2.473,1.428-3.997,4.065-4,6.92V240h-16v-44.688l21.656-21.656l-11.312-11.312L152,180.688l-18.344-18.344l-11.312,11.312
			L144,195.312V240h-16v-16.632c-0.003-2.855-1.527-5.492-4-6.92c-26.784-15.464-35.961-49.713-20.497-76.497
			c15.464-26.784,49.713-35.961,76.497-20.497C206.784,134.917,215.961,169.166,200.497,195.951z" fill="#4282d8" />
	</g>
</g>
<g>
	<g>
		<path d="M301.336,104L324.8,86.4l-9.6-12.8l-32,24c-3.535,2.651-4.251,7.665-1.6,11.2c0.455,0.606,0.994,1.145,1.6,1.6l32,24
			l9.6-12.8L301.336,104z" fill="#4282d8" />
	</g>
</g>
<g>
	<g>
		<path d="M422.4,99.2c-0.455-0.606-0.994-1.145-1.6-1.6l-32-24l-9.6,12.8l23.464,17.6L379.2,121.6l9.6,12.8l32-24
			C424.335,107.749,425.051,102.735,422.4,99.2z" fill="#4282d8" />
	</g>
</g>
<g>
	<g>
		<rect x="308.926" y="96.032" transform="matrix(0.3715 -0.9284 0.9284 0.3715 124.6551 392.2022)" width="86.16" height="16" fill="#4282d8" />
	</g>
</g>
<g>
	<g>
		<rect x="144" y="432" width="16" height="16" fill="#4282d8" />
	</g>
</g>
<g>
	<g>
		<rect x="280" y="160" width="16" height="16" fill="#4282d8" />
	</g>
</g>
<g>
	<g>
		<rect x="312" y="160" width="16" height="16" fill="#4282d8" />
	</g>
</g>
<g>
	<g>
		<rect x="344" y="160" width="16" height="16" fill="#4282d8" />
	</g>
</g>
<g>
	<g>
		<rect x="376" y="160" width="16" height="16" fill="#4282d8" />
	</g>
</g>
<g>
	<g>
		<rect x="408" y="160" width="16" height="16" fill="#4282d8" />
	</g>
</g>
<g>
	<g>
		<rect x="336" y="304" width="16" height="16" fill="#4282d8" />
	</g>
</g>
<g>
	<g>
		<rect x="368" y="304" width="64" height="16" fill="#4282d8" />
	</g>
</g>
<g>
	<g>
		<rect x="336" y="336" width="96" height="16" fill="#4282d8" />
	</g>
</g>
<g>
	<g>
		<rect x="272" y="368" width="160" height="16" fill="#4282d8" />
	</g>
</g>
<g>
	<g>
		<rect x="272" y="400" width="128" height="16" fill="#4282d8" />
	</g>
</g>
<g>
	<g>
		<path d="M312,304h-32c-4.418,0-8,3.582-8,8v32c0,4.418,3.582,8,8,8h32c4.418,0,8-3.582,8-8v-32C320,307.582,316.418,304,312,304z
			 M304,336h-16v-16h16V336z" fill="#4282d8" />
	</g>
</g>
</svg>
