<svg height="480pt" viewBox="-48 0 480 480.10467" width="480pt" xmlns="http://www.w3.org/2000/svg"><path d="m164.363281 85.113281c-4.039062 1.609375-6.054687 6.15625-4.53125 10.230469 1.523438 4.078125 6.023438 6.1875 10.132813 4.753906 14.230468-5.34375 29.914062-5.34375 44.144531 0 4.105469 1.433594 8.609375-.675781 10.128906-4.753906 1.523438-4.074219-.488281-8.621094-4.53125-10.230469-17.839843-6.6875-37.5-6.6875-55.34375 0zm0 0" fill="#4282d8" /><path d="m239.882812 67.800781c3.6875-.003906 6.890626-2.523437 7.765626-6.101562s-.808594-7.292969-4.074219-8.996094c-32.308594-16.734375-70.734375-16.734375-103.042969 0-2.617188 1.269531-4.34375 3.859375-4.5 6.765625-.160156 2.90625 1.273438 5.667969 3.738281 7.214844 2.464844 1.546875 5.578125 1.628906 8.121094.222656 27.695313-14.347656 60.628906-14.347656 88.320313 0 1.136718.585938 2.394531.894531 3.671874.894531zm0 0" fill="#4282d8" /><path d="m125.882812 34.570312c40.636719-24.769531 91.703126-24.769531 132.335938 0 3.757812 2.097657 8.503906.847657 10.742188-2.828124 2.234374-3.679688 1.160156-8.46875-2.4375-10.835938-45.734376-27.875-103.207032-27.875-148.941407 0-3.78125 2.292969-4.984375 7.210938-2.691406 10.992188 2.292969 3.777343 7.214844 4.980468 10.992187 2.6875zm0 0" fill="#4282d8" /><path d="m381.707031 378.449219-21.65625-21.65625v-38.914063c6.269531-3.605468 9.324219-10.976562 7.445313-17.960937-1.875-6.984375-8.214844-11.832031-15.445313-11.8125-1.382812.019531-2.757812.21875-4.085937.597656l-27.914063-27.910156v-4.6875c-.039062-13.238281-10.761719-23.960938-24-24h-8c0-4.417969-3.582031-8-8-8h-38.160156c9.183594-11.308594 14.183594-25.4375 14.160156-40 0-35.347657-28.652343-64-64-64-35.34375 0-64 28.652343-64 64-.019531 14.5625 4.980469 28.691406 14.160157 40h-38.160157c-4.417969 0-8 3.582031-8 8h-8c-13.238281.039062-23.957031 10.761719-24 24v4.6875l-27.910156 27.910156c-1.332031-.378906-2.707031-.578125-4.089844-.597656-7.230469-.019531-13.566406 4.828125-15.445312 11.8125-1.875 6.984375 1.179687 14.355469 7.445312 17.960937v38.914063l-21.65625 21.65625c-1.5 1.5-2.3398435 3.535156-2.3437498 5.65625v16c0 4.417969 3.5820308 8 7.9999998 8s8-3.582031 8-8v-12.6875l16-16 16 16v12.6875c0 4.417969 3.582031 8 8 8s8-3.582031 8-8v-16c0-2.121094-.84375-4.15625-2.34375-5.65625l-21.65625-21.65625v-38.914063c4.9375-2.832031 7.984375-8.082031 8-13.773437-.015625-1.382813-.21875-2.757813-.597656-4.089844l18.589844-18.582031c3.703125 8.882812 12.386719 14.667968 22.007812 14.671875h8v56c.011719.535156.066407 1.070312.160157 1.597656.257812 1.195313.777343 2.316406 1.519531 3.28125.304687.410156.65625.785156 1.042969 1.121094.238281.238281.558593.398437.800781.640625l55.277343 47.4375c1.457032 1.226562 3.296876 1.90625 5.199219 1.921875v24h-24v-8c0-13.253907-10.742187-24-24-24-13.253906 0-24 10.746093-24 24v32c0 13.253906 10.746094 24 24 24 13.257813 0 24-10.746094 24-24v-8h24v8c0 4.417969 3.582031 8 8 8h48c4.417969 0 8-3.582031 8-8v-8h24v8c0 13.253906 10.746094 24 24 24 13.257813 0 24-10.746094 24-24v-32c0-13.253907-10.742187-24-24-24-13.253906 0-24 10.746093-24 24v8h-24v-24c1.90625-.015625 3.746094-.695313 5.203125-1.921875l55.277344-47.4375c.242188-.242188.5625-.402344.800781-.640625.386719-.335938.734375-.710938 1.039063-1.121094.746094-.964844 1.265625-2.085937 1.519531-3.28125.097656-.527344.152344-1.0625.160156-1.597656v-56h8c9.617188 0 18.289063-5.773438 22-14.640625l18.59375 18.582031c-.375 1.320313-.574219 2.6875-.59375 4.058594.019531 5.691406 3.066407 10.941406 8 13.773437v38.914063l-21.65625 21.65625c-1.5 1.5-2.339843 3.535156-2.34375 5.65625v16c0 4.417969 3.582031 8 8 8s8-3.582031 8-8v-12.6875l16-16 16 16v12.6875c0 4.417969 3.582031 8 8 8s8-3.582031 8-8v-16c0-2.121094-.84375-4.15625-2.34375-5.65625zm-285.65625-98.34375h-8c-4.417969 0-8-3.582031-8-8v-16c0-4.417969 3.582031-8 8-8h8zm24 176c0 4.417969-3.582031 8-8 8s-8-3.582031-8-8v-32c0-4.417969 3.582031-8 8-8s8 3.582031 8 8zm144-32c0-4.417969 3.582031-8 8-8s8 3.582031 8 8v32c0 4.417969-3.582031 8-8 8s-8-3.582031-8-8zm-72-288c21.164063.023437 39.816407 13.902343 45.914063 34.167969 6.097656 20.265624-1.796875 42.132812-19.433594 53.832031h-52.957031c-17.636719-11.699219-25.53125-33.566407-19.433594-53.832031 6.097656-20.265626 24.75-34.144532 45.910156-34.167969zm16 296v16h-32v-40h32zm13.042969-40h-58.082031l-37.359375-32h132.800781zm50.957031-48h-160v-104h160zm32-72c0 4.417969-3.582031 8-8 8h-8v-32h8c4.417969 0 8 3.582031 8 8zm0 0" fill="#4282d8" /><path d="m192.050781 328.105469c17.675781 0 32-14.328125 32-32 0-17.675781-14.324219-32-32-32-17.671875 0-32 14.324219-32 32 0 17.671875 14.328125 32 32 32zm0-48c8.839844 0 16 7.164062 16 16 0 8.835937-7.160156 16-16 16-8.835937 0-16-7.164063-16-16 .027344-8.828125 7.175781-15.972657 16-16zm0 0" fill="#4282d8" /><path d="m172.050781 184.105469h40c6.628907 0 12-5.375 12-12 0-6.628907-5.371093-12-12-12h-40c-6.625 0-12 5.371093-12 12 0 6.625 5.375 12 12 12zm0 0" fill="#4282d8" /></svg>