<?xml version="1.0" encoding="iso-8859-1"?>
<!-- Generator: Adobe Illustrator 19.0.0, SVG Export Plug-In . SVG Version: 6.00 Build 0)  -->
<svg version="1.1" id="Capa_1" xmlns="http://www.w3.org/2000/svg" xmlns:xlink="http://www.w3.org/1999/xlink" x="0px" y="0px"
	 viewBox="0 0 512 512" style="enable-background:new 0 0 512 512;" xml:space="preserve">
<g>
	<g>
		<path d="M360,104h-80c-4.418,0-8,3.582-8,8v80c0,4.418,3.582,8,8,8h80c4.418,0,8-3.582,8-8v-80C368,107.582,364.418,104,360,104z
			 M288,184v-52.693L340.693,184H288z M352,172.68L299.32,120H352V172.68z" fill="#4282d8" />
	</g>
</g>
<g>
	<g>
		<path d="M360,216h-80c-4.418,0-8,3.582-8,8v80c0,4.418,3.582,8,8,8h80c4.418,0,8-3.582,8-8v-80C368,219.582,364.418,216,360,216z
			 M288,296v-52.685L340.685,296H288z M352,284.688L299.312,232H352V284.688z" fill="#4282d8" />
	</g>
</g>
<g>
	<g>
		<rect x="272" y="328" width="64" height="16" fill="#4282d8" />
	</g>
</g>
<g>
	<g>
		<rect x="352" y="328" width="16" height="16" fill="#4282d8" />
	</g>
</g>
<g>
	<g>
		<rect x="272" y="360" width="96" height="16" fill="#4282d8" />
	</g>
</g>
<g>
	<g>
		<rect x="272" y="392" width="96" height="16" fill="#4282d8" />
	</g>
</g>
<g>
	<g>
		<rect x="136" y="184" width="80" height="16" fill="#4282d8" />
	</g>
</g>
<g>
	<g>
		<rect x="136" y="248" width="80" height="16" fill="#4282d8" />
	</g>
</g>
<g>
	<g>
		<rect x="136" y="312" width="80" height="16" fill="#4282d8" />
	</g>
</g>
<g>
	<g>
		<path d="M464,56c-4.418,0-8,3.582-8,8v32h-48V16c0-8.837-7.163-16-16-16H120c-8.837,0-16,7.163-16,16v80H56V64
			c0-4.418-3.582-8-8-8c-0.48,0-48,0.728-48,64v312c0,30.504,30.4,44.632,46.4,47.84c0.526,0.111,1.062,0.165,1.6,0.16h56v16
			c0,8.837,7.163,16,16,16h272c8.837,0,16-7.163,16-16v-16h56c0.538,0.005,1.074-0.049,1.6-0.16c16-3.208,46.4-17.336,46.4-47.84
			V120C512,56.728,464.48,56,464,56z M16,120c0-32.64,14.4-43.088,24-46.4v312.232c-8.773,2.722-16.927,7.139-24,13V120z M104,464
			H48.88C44.104,462.856,16,455.128,16,432c0-24.96,32.248-31.88,33.6-32.16c3.725-0.76,6.401-4.038,6.4-7.84V112h48V464z M120,88
			h92.12L120,145.543V88z M232,94.447V152h-92.136L232,94.447z M120,168h112v48H120V168z M120,232h112v48H120V232z M120,296h112v48
			H120V296z M120,360h94.186L120,424.724V360z M232,367.172V432h-94.337L232,367.172z M392,496H120v-48h272V496z M392,432H248V88
			h144V432z M392,72H120V16h272V72z M463.136,464H408V112h48v280c-0.001,3.802,2.675,7.08,6.4,7.84
			c0.368,0.072,33.6,7.008,33.6,32.16C496,455.256,468.072,462.84,463.136,464z M496,398.832c-7.073-5.861-15.227-10.278-24-13V73.6
			c9.496,3.32,24,13.776,24,46.4V398.832z" fill="#4282d8" />
	</g>
</g>
<g>
	<g>
		<rect x="200" y="40" width="64" height="16" fill="#4282d8" />
	</g>
</g>
<g>
	<g>
		<rect x="280" y="40" width="16" height="16" fill="#4282d8" />
	</g>
</g>
<g>
	<g>
		<rect x="312" y="40" width="16" height="16" fill="#4282d8" />
	</g>
</g>
</svg>
