<?xml version="1.0" encoding="utf-8"?>
<!-- Generator: Adobe Illustrator 16.0.0, SVG Export Plug-In . SVG Version: 6.00 Build 0)  -->
<!DOCTYPE svg PUBLIC "-//W3C//DTD SVG 1.1//EN" "http://www.w3.org/Graphics/SVG/1.1/DTD/svg11.dtd">
<svg version="1.1" id="Layer_1" xmlns="http://www.w3.org/2000/svg" xmlns:xlink="http://www.w3.org/1999/xlink" x="0px" y="0px"
	 width="3401.57px" height="1610.08px" viewBox="0 0 3401.57 1610.08" enable-background="new 0 0 3401.57 1610.08"
	 xml:space="preserve">
<g>
	<path fill="#4C80C2" d="M184.056,274.845H64.306c-11.71-37.841-17.549-77.247-17.549-118.201c0-40.938,10.839-73.633,32.518-98.07
		c21.679-24.421,53.842-36.647,96.522-36.647v57.81c-34.421,0-51.616,21.001-51.616,62.971v19.614h59.875V274.845z M358.518,274.845
		H238.769c-11.71-37.841-17.549-77.247-17.549-118.201c0-40.938,10.839-73.633,32.518-98.07
		c21.679-24.421,53.842-36.647,96.522-36.647v57.81c-34.421,0-51.616,21.001-51.616,62.971v19.614h59.875V274.845z"/>
	<path fill="#4C80C2" d="M427.474,268.444h398.064v85.89l-222.981,512.03H476.199l233.719-502.119H427.474V268.444z"/>
	<path fill="#4C80C2" d="M899.862,565.338c0-199.571,74.185-299.373,222.567-299.373c148.369,0,222.567,99.802,222.567,299.373
		c0,199.587-74.198,299.374-222.567,299.374C974.047,864.712,899.862,764.926,899.862,565.338z M1171.566,384.064
		c-13.767-7.148-30.012-10.737-48.723-10.737c-18.724,0-34.97,3.589-48.726,10.737c-13.77,7.162-24.364,16.249-31.795,27.254
		c-7.433,11.02-13.355,25.472-17.756,43.357c-4.415,17.899-7.304,35.099-8.672,51.616c-1.379,16.517-2.065,36.066-2.065,58.635
		c0,22.582,0.686,42.118,2.065,58.635c1.368,16.517,4.258,33.733,8.672,51.616c4.401,17.899,10.323,32.491,17.756,43.771
		c7.431,11.291,18.025,20.517,31.795,27.666c13.756,7.162,30.002,10.734,48.726,10.734c18.711,0,34.957-3.573,48.723-10.734
		c13.756-7.148,24.365-16.375,31.798-27.666c7.431-11.28,13.342-25.873,17.754-43.771c4.4-17.883,7.291-35.099,8.672-51.616
		c1.369-16.517,2.065-36.053,2.065-58.635c0-22.569-0.696-42.118-2.065-58.635c-1.382-16.517-4.272-33.717-8.672-51.616
		c-4.412-17.885-10.323-32.338-17.754-43.357C1195.931,400.313,1185.323,391.226,1171.566,384.064z"/>
	<path fill="#4C80C2" d="M1456.073,509.593c-24.507-23.663-36.752-56.157-36.752-97.449c0-41.293,12.246-73.631,36.752-97.039
		c24.49-23.396,55.874-35.099,94.146-35.099c38.26,0,69.644,11.702,94.148,35.099c24.494,23.408,36.752,55.746,36.752,97.039
		c0,41.292-12.119,73.787-36.338,97.449c-24.235,23.679-55.616,35.513-94.148,35.513
		C1512.087,545.106,1480.563,533.272,1456.073,509.593z M1487.042,866.364l323.735-578.099h113.142l-324.561,578.099H1487.042z
		 M1596.88,412.555c0-42.116-15.563-63.176-46.661-63.176c-31.109,0-46.659,21.06-46.659,63.176
		c0,42.121,15.55,63.181,46.659,63.181C1581.317,475.736,1596.88,454.676,1596.88,412.555z M1861.154,874.623
		c-38.543,0-70.069-11.691-94.56-35.099c-24.504-23.396-36.752-55.875-36.752-97.449c0-41.567,12.248-74.045,36.752-97.452
		c24.49-23.394,55.874-35.099,94.147-35.099c38.261,0,69.642,11.705,94.146,35.099c24.494,23.407,36.753,55.885,36.753,97.452
		c0,41.575-12.116,74.053-36.339,97.449C1931.069,862.932,1899.686,874.623,1861.154,874.623z M1906.576,742.075
		c0-42.121-15.421-63.182-46.247-63.182c-30.841,0-46.248,21.061-46.248,63.182c0,42.115,15.407,63.176,46.248,63.176
		C1891.155,805.251,1906.576,784.19,1906.576,742.075z"/>
</g>
<g>
	<path fill="#4C80C2" d="M2155.766,343.354c-22.616,0-37.698-15.079-37.698-37.217c0-29.996,22.781-54.06,53.581-54.06
		c22.62,0,38.339,15.079,38.339,37.376C2209.987,319.772,2186.246,343.354,2155.766,343.354z M2158.014,327.956
		c18.929,0,33.045-17.808,33.045-37.379c0-15.401-10.105-23.101-21.978-23.101c-19.248,0-32.082,17.969-32.082,37.86
		C2136.999,320.254,2146.142,327.956,2158.014,327.956z"/>
	<path fill="#4C80C2" d="M2234.682,268.439h-10.425l2.564-14.917h10.428l1.124-6.256c3.688-20.375,15.56-29.198,38.661-29.198
		l-2.567,15.24c-11.229,0-15.883,3.85-17.646,13.958l-1.124,6.256h16.364l-2.567,14.917h-16.361l-12.995,73.472h-18.447
		L2234.682,268.439z"/>
	<path fill="#4C80C2" d="M2426.21,286.566c-6.098,34.33-33.207,55.345-68.98,55.345h-36.416l19.732-111.491h36.416
		C2412.733,230.42,2432.304,252.078,2426.21,286.566z M2359.797,327.956c26.308,0,43.15-16.044,47.643-41.39
		c4.492-25.507-6.737-41.387-33.045-41.387h-18.127l-14.598,82.776H2359.797z"/>
	<path fill="#4C80C2" d="M2450.104,253.521h18.286l-15.561,88.39h-18.288L2450.104,253.521z M2451.867,230.101
		c1.124-6.578,7.218-11.71,13.796-11.71c6.418,0,10.587,5.132,9.463,11.71c-1.12,6.576-7.218,11.71-13.635,11.71
		C2454.915,241.811,2450.743,236.676,2451.867,230.101z"/>
	<path fill="#4C80C2" d="M2528.38,252.078c14.439,0,24.063,6.737,28.074,14.278l2.244-12.834h18.448l-15.719,89.833
		c-4.334,24.063-23.101,42.191-50.694,42.191c-23.582,0-38.98-11.71-37.698-31.281h18.127c1.124,9.143,9.786,15.398,22.459,15.398
		c14.116,0,26.149-8.662,29.356-26.308l2.567-14.759c-6.898,7.541-18.771,14.759-33.206,14.759c-23.26,0-38.5-18.77-33.688-46.04
		C2483.463,270.044,2505.12,252.078,2528.38,252.078z M2529.503,267.958c-13.635,0-28.714,10.267-32.085,29.357
		c-3.368,19.09,7.86,30.16,21.496,30.16c13.797,0,28.717-10.748,32.085-29.838C2554.368,278.706,2543.3,267.958,2529.503,267.958z"
		/>
	<path fill="#4C80C2" d="M2601.201,253.521h18.286l-15.561,88.39h-18.288L2601.201,253.521z M2602.965,230.101
		c1.124-6.578,7.218-11.71,13.797-11.71c6.417,0,10.587,5.132,9.463,11.71c-1.121,6.576-7.219,11.71-13.636,11.71
		C2606.014,241.811,2601.841,236.676,2602.965,230.101z"/>
	<path fill="#4C80C2" d="M2643.868,268.439h-10.428l2.566-14.917h10.587l3.853-21.977h18.447l-3.85,21.977h21.334l-2.566,14.917
		h-21.496l-8.662,48.928c-1.123,6.578,0.963,9.304,8.662,9.304h11.229l-2.726,15.24h-14.438c-15.719,0-24.223-6.579-21.174-24.544
		L2643.868,268.439z"/>
	<path fill="#4C80C2" d="M2739.147,252.078c14.921,0,23.902,7.057,28.074,14.278l2.245-12.834h18.447l-15.56,88.39h-18.447
		l2.405-13.154c-6.897,7.538-18.77,14.598-33.526,14.598c-22.939,0-38.18-18.77-33.367-46.04S2715.889,252.078,2739.147,252.078z
		 M2740.271,267.958c-13.636,0-28.714,10.267-32.085,29.357c-3.369,19.09,7.86,30.16,21.496,30.16
		c13.796,0,28.717-10.748,32.085-29.838C2765.136,278.706,2754.068,267.958,2740.271,267.958z"/>
	<path fill="#4C80C2" d="M2817.421,223.202h18.289l-21.015,118.709h-18.288L2817.421,223.202z"/>
	<path fill="#4C80C2" d="M2131.063,422.905h77.804l-2.567,14.278h-29.677l-17.165,97.213h-18.289l17.165-97.213h-29.838
		L2131.063,422.905z"/>
	<path fill="#4C80C2" d="M2207.573,534.396l15.563-88.39h18.286l-2.727,15.561c6.898-10.267,16.843-17.004,29.516-17.004
		l-3.368,18.929h-4.651c-13.477,0-22.78,5.616-25.988,23.74l-8.342,47.165H2207.573z"/>
	<path fill="#4C80C2" d="M2320.66,444.563c14.921,0,23.902,7.057,28.074,14.278l2.245-12.834h18.447l-15.561,88.39h-18.447
		l2.406-13.154c-6.898,7.538-18.77,14.598-33.526,14.598c-22.939,0-38.18-18.77-33.367-46.041
		C2275.743,462.528,2297.401,444.563,2320.66,444.563z M2321.784,460.442c-13.636,0-28.715,10.267-32.086,29.356
		c-3.368,19.09,7.861,30.161,21.496,30.161c13.797,0,28.717-10.748,32.086-29.838
		C2346.648,471.19,2335.581,460.442,2321.784,460.442z"/>
	<path fill="#4C80C2" d="M2449.466,484.987c2.729-16.203-4.492-24.544-17.805-24.544c-13.477,0-23.904,8.342-26.63,24.544v-0.481
		l-8.823,49.89h-18.289l15.563-88.39h18.286l-1.763,10.267c7.218-7.379,17.805-11.71,28.394-11.71
		c20.692,0,34.008,12.993,29.677,37.698l-9.305,52.135h-18.127L2449.466,484.987z"/>
	<path fill="#4C80C2" d="M2514.586,535.839c-19.892,0-34.973-11.71-32.566-28.555h17.808c-0.801,8.022,5.135,14.119,15.883,14.119
		c9.624,0,17.644-3.21,17.644-10.748c0-15.722-43.954-11.552-43.954-40.104c0-15.563,14.277-25.988,34.972-25.988
		c20.053,0,34.008,11.388,31.925,28.394h-17.327c0.802-8.342-5.134-13.958-15.721-13.958c-9.144,0-15.399,4.172-15.399,10.748
		c0,16.684,43.474,12.834,43.474,40.266C2551.322,526.054,2535.601,535.839,2514.586,535.839z"/>
	<path fill="#4C80C2" d="M2582.915,460.924h-10.425l2.564-14.918h10.428l1.124-6.255c3.688-20.375,15.561-29.198,38.661-29.198
		l-2.567,15.24c-11.229,0-15.883,3.85-17.646,13.958l-1.124,6.255h16.364l-2.567,14.918h-16.361l-12.995,73.472h-18.447
		L2582.915,460.924z"/>
	<path fill="#4C80C2" d="M2659.589,535.839c-22.616,0-37.698-15.079-37.698-37.217c0-29.996,22.781-54.06,53.581-54.06
		c22.62,0,38.339,15.079,38.339,37.376C2713.811,512.257,2690.069,535.839,2659.589,535.839z M2661.837,520.44
		c18.929,0,33.045-17.807,33.045-37.378c0-15.401-10.105-23.101-21.978-23.101c-19.248,0-32.082,17.969-32.082,37.86
		C2640.822,512.739,2649.965,520.44,2661.837,520.44z"/>
	<path fill="#4C80C2" d="M2723.265,534.396l15.563-88.39h18.286l-2.727,15.561c6.898-10.267,16.843-17.004,29.516-17.004
		l-3.369,18.929h-4.65c-13.477,0-22.781,5.616-25.988,23.74l-8.342,47.165H2723.265z"/>
	<path fill="#4C80C2" d="M2918.968,484.987c2.729-16.203-4.492-24.544-17.805-24.544c-13.477,0-23.904,8.342-26.631,24.544
		l-8.823,49.409h-18.127l8.823-49.409c2.729-16.203-4.492-24.544-17.805-24.544c-13.477,0-23.905,8.342-26.631,24.544v-0.481
		l-8.823,49.89h-18.289l15.563-88.39h18.285l-1.764,10.267c7.058-7.379,17.646-11.71,28.233-11.71
		c13.958,0,24.706,5.936,28.875,17.485c7.219-10.748,20.695-17.485,33.688-17.485c20.695,0,34.169,12.993,29.838,37.698
		l-9.304,52.135h-18.128L2918.968,484.987z"/>
	<path fill="#4C80C2" d="M3003.011,444.563c14.92,0,23.902,7.057,28.074,14.278l2.244-12.834h18.447l-15.56,88.39h-18.447
		l2.406-13.154c-6.898,7.538-18.771,14.598-33.526,14.598c-22.939,0-38.18-18.77-33.367-46.041
		C2958.094,462.528,2979.751,444.563,3003.011,444.563z M3004.134,460.442c-13.635,0-28.714,10.267-32.085,29.356
		c-3.368,19.09,7.86,30.161,21.496,30.161c13.796,0,28.717-10.748,32.085-29.838C3028.999,471.19,3017.931,460.442,3004.134,460.442
		z"/>
	<path fill="#4C80C2" d="M3076.152,460.924h-10.429l2.567-14.918h10.587l3.853-21.977h18.447l-3.85,21.977h21.335l-2.568,14.918
		H3094.6l-8.662,48.928c-1.124,6.578,0.962,9.304,8.662,9.304h11.229l-2.727,15.24h-14.439c-15.719,0-24.222-6.579-21.173-24.544
		L3076.152,460.924z"/>
	<path fill="#4C80C2" d="M3135.503,446.006h18.285l-15.56,88.39h-18.289L3135.503,446.006z M3137.266,422.585
		c1.124-6.579,7.219-11.71,13.797-11.71c6.417,0,10.587,5.132,9.463,11.71c-1.121,6.576-7.218,11.71-13.636,11.71
		C3140.314,434.296,3136.142,429.161,3137.266,422.585z"/>
	<path fill="#4C80C2" d="M3200.944,535.839c-22.617,0-37.698-15.079-37.698-37.217c0-29.996,22.78-54.06,53.581-54.06
		c22.619,0,38.338,15.079,38.338,37.376C3255.165,512.257,3231.425,535.839,3200.944,535.839z M3203.192,520.44
		c18.928,0,33.045-17.807,33.045-37.378c0-15.401-10.105-23.101-21.978-23.101c-19.249,0-32.083,17.969-32.083,37.86
		C3182.177,512.739,3191.32,520.44,3203.192,520.44z"/>
	<path fill="#4C80C2" d="M3336.168,484.987c2.729-16.203-4.492-24.544-17.806-24.544c-13.477,0-23.904,8.342-26.63,24.544v-0.481
		l-8.823,49.89h-18.289l15.563-88.39h18.287l-1.764,10.267c7.218-7.379,17.805-11.71,28.394-11.71
		c20.692,0,34.008,12.993,29.677,37.698l-9.305,52.135h-18.127L3336.168,484.987z"/>
	<path fill="#4C80C2" d="M2163.626,681.646h-20.21l-8.022,45.237h-18.289l19.732-111.491h38.5c26.47,0,36.736,15.079,33.529,33.207
		C2206.138,664.481,2192.663,681.646,2163.626,681.646z M2166.194,667.369c14.277,0,21.977-7.541,23.901-18.77
		c2.087-11.549-3.048-18.929-17.323-18.929h-20.214l-6.578,37.699H2166.194z"/>
	<path fill="#4C80C2" d="M2212.544,726.883l15.563-88.39h18.286l-2.727,15.56c6.898-10.267,16.843-17.004,29.516-17.004
		l-3.368,18.929h-4.651c-13.477,0-22.78,5.616-25.988,23.741l-8.342,47.164H2212.544z"/>
	<path fill="#4C80C2" d="M2312.797,728.327c-22.617,0-37.698-15.079-37.698-37.217c0-29.996,22.781-54.06,53.581-54.06
		c22.619,0,38.338,15.079,38.338,37.376C2367.018,704.745,2343.277,728.327,2312.797,728.327z M2315.044,712.928
		c18.929,0,33.045-17.808,33.045-37.379c0-15.398-10.105-23.101-21.977-23.101c-19.248,0-32.083,17.966-32.083,37.86
		C2294.029,705.226,2303.173,712.928,2315.044,712.928z"/>
	<path fill="#4C80C2" d="M2410.321,638.494l-18.608,105.716c-3.046,17.966-13.955,24.703-29.677,24.703h-9.465l2.729-15.399h6.256
		c7.699,0,10.748-2.729,11.871-9.304l18.608-105.716H2410.321z M2393.799,615.073c1.124-6.579,7.219-11.71,13.797-11.71
		c6.417,0,10.587,5.132,9.463,11.71c-1.121,6.576-7.218,11.71-13.636,11.71C2396.848,626.783,2392.675,621.648,2393.799,615.073z"/>
	<path fill="#4C80C2" d="M2456.679,728.327c-25.346,0-41.066-17.966-36.093-45.718c4.974-27.754,25.987-45.559,52.135-45.559
		c25.187,0,39.943,17.485,35.454,43.15c-0.481,2.729-1.285,5.616-2.248,8.665h-67.536c-1.764,14.917,7.38,24.063,21.015,24.063
		c11.229,0,18.45-5.455,22.942-12.353h19.729C2494.378,715.974,2478.337,728.327,2456.679,728.327z M2440.8,675.711h49.086
		c2.244-14.598-7.057-23.262-20.695-23.262C2456.518,652.449,2444.808,661.113,2440.8,675.711z"/>
	<path fill="#4C80C2" d="M2570.888,637.05c21.657,0,33.849,10.748,35.612,29.356h-19.732c-1.603-8.503-7.699-13.958-18.608-13.958
		c-14.756,0-26.467,10.909-29.838,30.16c-3.369,19.41,4.492,30.319,19.251,30.319c10.909,0,18.447-4.815,23.421-13.958h19.732
		c-8.021,17.326-24.225,29.356-45.879,29.356c-25.349,0-40.266-17.966-35.293-45.718
		C2524.366,655.016,2545.542,637.05,2570.888,637.05z"/>
	<path fill="#4C80C2" d="M2629.91,653.411h-10.429l2.568-14.917h10.586l3.853-21.977h18.447l-3.85,21.977h21.335l-2.567,14.917
		h-21.496l-8.662,48.928c-1.124,6.578,0.963,9.304,8.662,9.304h11.229l-2.727,15.24h-14.438c-15.719,0-24.222-6.579-21.174-24.544
		L2629.91,653.411z"/>
	<path fill="#4C80C2" d="M2706.265,728.327c-19.892,0-34.973-11.71-32.566-28.555h17.807c-0.801,8.022,5.135,14.119,15.883,14.119
		c9.624,0,17.644-3.21,17.644-10.748c0-15.722-43.954-11.552-43.954-40.104c0-15.563,14.277-25.988,34.973-25.988
		c20.053,0,34.008,11.388,31.924,28.394h-17.326c0.801-8.342-5.135-13.958-15.722-13.958c-9.143,0-15.398,4.172-15.398,10.748
		c0,16.684,43.473,12.834,43.473,40.266C2743,718.542,2727.278,728.327,2706.265,728.327z"/>
</g>
<g>
	<path fill="#4C80C2" d="M608.753,1124.021h111.491l-140.396,457.524H455.97l-78.457-307.218l-79.284,307.218H174.351
		L33.955,1124.021h117.276l84.236,347.685l84.236-347.685h122.228l82.586,346.859L608.753,1124.021z"/>
	<path fill="#4C80C2" d="M915.968,1007.575c0,19.82-6.89,36.62-20.646,50.376c-13.767,13.771-30.426,20.646-49.962,20.646
		c-19.55,0-36.209-6.876-49.965-20.646c-13.77-13.756-20.646-30.556-20.646-50.376c0-19.821,6.877-36.61,20.646-50.377
		c13.756-13.756,30.416-20.646,49.965-20.646c19.536,0,36.196,6.891,49.962,20.646
		C909.078,970.965,915.968,987.754,915.968,1007.575z M787.135,1581.545v-457.524H903.58v457.524H787.135z"/>
	<path fill="#4C80C2" d="M1027.445,1581.545V970.411h116.445v611.134H1027.445z"/>
	<path fill="#4C80C2" d="M1267.758,1581.545V970.411h116.445v611.134H1267.758z"/>
	<path fill="#4C80C2" d="M1951.544,1124.021v94.973h-72.674v362.552h-115.62v-362.552h-49.551v-94.973h49.551v-25.602
		c0-55.049,14.582-95.245,43.769-120.574c29.177-25.318,75.155-37.989,137.92-37.989v97.45c-24.235,0-41.293,4.686-51.205,14.041
		c-9.909,9.366-14.863,25.058-14.863,47.072v25.602H1951.544z"/>
	<path fill="#4C80C2" d="M2060.97,1521.671c-41.024-44.313-61.528-100.883-61.528-169.715c0-68.816,20.364-125.115,61.114-168.887
		c40.739-43.771,92.495-65.654,155.262-65.654c62.766,0,110.663,25.883,143.697,77.628v-71.022h115.62v457.524h-115.62v-76.806
		c-34.685,55.616-82.868,83.414-144.524,83.414C2153.322,1588.153,2101.978,1565.995,2060.97,1521.671z M2323.179,1451.473
		c24.22-23.95,36.336-56.842,36.336-98.688c0-41.836-12.116-74.741-36.336-98.691c-24.234-23.951-52.583-35.925-85.063-35.925
		c-32.491,0-60.7,11.845-84.65,35.513c-23.95,23.68-35.925,56.442-35.925,98.275c0,41.85,12.104,74.883,36.339,99.103
		c24.219,24.235,52.441,36.338,84.65,36.338C2270.735,1487.396,2298.944,1475.423,2323.179,1451.473z"/>
	<path fill="#4C80C2" d="M2727.846,1007.575c0,19.82-6.89,36.62-20.646,50.376c-13.768,13.771-30.427,20.646-49.963,20.646
		c-19.55,0-36.209-6.876-49.966-20.646c-13.77-13.756-20.646-30.556-20.646-50.376c0-19.821,6.877-36.61,20.646-50.377
		c13.757-13.756,30.416-20.646,49.966-20.646c19.536,0,36.195,6.891,49.963,20.646
		C2720.956,970.965,2727.846,987.754,2727.846,1007.575z M2599.013,1581.545v-457.524h116.445v457.524H2599.013z"/>
	<path fill="#4C80C2" d="M2839.323,1581.545V970.411h116.445v611.134H2839.323z"/>
	<path fill="#4C80C2" d="M3051.279,773.558h114.583c11.188,36.222,16.791,73.926,16.791,113.098
		c0,39.188-10.372,70.47-31.115,93.836c-20.743,23.384-51.532,35.067-92.354,35.067v-55.315c32.918,0,49.387-20.079,49.387-60.251
		v-18.77h-57.291V773.558z M3218.212,773.558h114.579c11.191,36.222,16.792,73.926,16.792,113.098
		c0,39.188-10.369,70.47-31.112,93.836c-20.743,23.384-51.536,35.067-92.358,35.067v-55.315c32.922,0,49.391-20.079,49.391-60.251
		v-18.77h-57.291V773.558z"/>
</g>
</svg>
